<?xml version="1.0" encoding="iso-8859-1"?>
<!-- Generator: Adobe Illustrator 16.0.0, SVG Export Plug-In . SVG Version: 6.00 Build 0)  -->
<!DOCTYPE svg PUBLIC "-//W3C//DTD SVG 1.1//EN" "http://www.w3.org/Graphics/SVG/1.1/DTD/svg11.dtd">
<svg xmlns="http://www.w3.org/2000/svg" xmlns:xlink="http://www.w3.org/1999/xlink" version="1.1" id="Capa_1" x="0px" y="0px" width="512px" height="512px" viewBox="0 0 377.343 377.343" style="enable-background:new 0 0 377.343 377.343;" xml:space="preserve">
<g>
	<path d="M121.131,106.865h38.95v34.011h-38.95V106.865z M121.131,203.175h38.95v-34.011h-38.95V203.175z M321.406,73.223v230.911   c0,10.866-8.844,19.71-19.717,19.71H75.651c-10.876,0-19.725-8.844-19.725-19.71V73.223c0-10.87,8.843-19.713,19.725-19.713   h226.039C312.562,53.505,321.406,62.353,321.406,73.223z M198.122,106.77c0-7.453-3.839-13.998-11.504-19.628   c-7.665-5.631-16.513-8.454-26.532-8.454H83.226v152.669h76.859c10.02,0,18.868-2.786,26.532-8.362   c7.666-5.57,11.504-12.142,11.504-19.731v-25.458c0-5.25-1.418-9.425-4.246-12.534c-2.837-3.111-6.299-6.575-10.389-10.397   c4.09-3.691,7.558-7.075,10.389-10.156c2.828-3.078,4.246-7.302,4.246-12.681V106.77z M374.117,35.439v306.464   c0,19.573-15.867,35.439-35.436,35.439H38.662c-19.568,0-35.437-15.866-35.437-35.439V35.439C3.226,15.869,19.094,0,38.662,0   h300.02C358.25,0.005,374.117,15.874,374.117,35.439z M335.381,73.223c0-18.569-15.113-33.688-33.691-33.688H75.651   c-18.576,0-33.695,15.114-33.695,33.688v230.911c0,18.565,15.114,33.685,33.695,33.685h226.039   c18.572,0,33.691-15.113,33.691-33.685V73.223z" fill="#006DF0"/>
</g>
<g>
</g>
<g>
</g>
<g>
</g>
<g>
</g>
<g>
</g>
<g>
</g>
<g>
</g>
<g>
</g>
<g>
</g>
<g>
</g>
<g>
</g>
<g>
</g>
<g>
</g>
<g>
</g>
<g>
</g>
</svg>
